<?xml version="1.0" standalone="no"?>
<!DOCTYPE svg PUBLIC "-//W3C//DTD SVG 20010904//EN"
 "http://www.w3.org/TR/2001/REC-SVG-20010904/DTD/svg10.dtd">
<svg version="1.0" xmlns="http://www.w3.org/2000/svg"
 width="512.000000pt" height="512.000000pt" viewBox="0 0 512.000000 512.000000"
 preserveAspectRatio="xMidYMid meet">

<g transform="translate(0.000000,512.000000) scale(0.100000,-0.100000)"
fill="#000000" stroke="none">
<path d="M3226 3000 c-636 -523 -639 -525 -705 -502 -16 6 -260 200 -543 433
-282 232 -538 443 -568 468 -30 24 186 -197 480 -492 578 -580 562 -567 670
-567 99 0 105 4 751 536 338 278 618 510 624 515 6 6 -9 28 -40 59 -27 28 -52
50 -56 50 -3 0 -279 -225 -613 -500z"/>
<path d="M3980 2546 l0 -858 -39 -39 -39 -39 -1347 2 -1347 3 727 -722 728
-723 56 0 c31 0 115 9 186 19 443 65 849 247 1194 535 104 86 289 280 369 387
205 273 344 568 422 894 31 127 60 318 60 388 l0 42 -485 485 -485 485 0 -859z"/>
</g>
</svg>
