<?xml version="1.0" standalone="no"?>
<!DOCTYPE svg PUBLIC "-//W3C//DTD SVG 20010904//EN"
 "http://www.w3.org/TR/2001/REC-SVG-20010904/DTD/svg10.dtd">
<svg version="1.0" xmlns="http://www.w3.org/2000/svg"
 width="512.000000pt" height="512.000000pt" viewBox="0 0 512.000000 512.000000"
 preserveAspectRatio="xMidYMid meet">

<g transform="translate(0.000000,512.000000) scale(0.100000,-0.100000)"
fill="#000000" stroke="none">
<path d="M2368 5080 c-520 -82 -933 -409 -1122 -888 -86 -216 -117 -495 -82
-727 20 -125 77 -308 131 -416 300 -599 973 -906 1621 -739 538 139 942 578
1039 1131 22 120 22 353 1 469 -36 201 -112 392 -223 558 -71 107 -222 265
-333 348 -146 110 -358 204 -560 249 -88 19 -385 29 -472 15z"/>
<path d="M1294 2322 c-231 -138 -480 -351 -656 -562 -250 -299 -450 -695 -547
-1085 -40 -163 -81 -469 -81 -611 l0 -34 2552 0 2551 0 -7 133 c-3 72 -13 178
-21 235 -117 819 -585 1528 -1279 1939 l-88 52 -62 -51 c-266 -222 -618 -363
-971 -387 -435 -29 -847 96 -1188 363 l-95 74 -108 -66z"/>
</g>
</svg>
