<?xml version="1.0" standalone="no"?>
<!DOCTYPE svg PUBLIC "-//W3C//DTD SVG 20010904//EN"
 "http://www.w3.org/TR/2001/REC-SVG-20010904/DTD/svg10.dtd">
<svg version="1.0" xmlns="http://www.w3.org/2000/svg"
 width="360.000000pt" height="360.000000pt" viewBox="0 0 360.000000 360.000000"
 preserveAspectRatio="xMidYMid meet">

<g transform="translate(0.000000,360.000000) scale(0.100000,-0.100000)"
fill="#000000" stroke="none">
<path d="M2805 2840 c-89 -22 -106 -37 -785 -715 -372 -371 -680 -675 -686
-675 -7 0 -17 7 -24 15 -7 8 -16 12 -21 9 -5 -3 -6 1 -4 9 7 17 -30 51 -46 41
-7 -4 -10 -3 -5 4 3 6 -66 83 -161 178 -192 191 -227 214 -333 214 -157 0
-283 -125 -284 -280 -1 -114 8 -126 382 -502 370 -372 382 -381 497 -382 45 0
75 7 120 27 55 25 136 103 851 820 869 871 838 835 838 957 -1 127 -78 232
-199 269 -71 22 -91 24 -140 11z m270 -160 c3 -5 1 -10 -4 -10 -6 0 -11 5 -11
10 0 6 2 10 4 10 3 0 8 -4 11 -10z m-442 -24 c4 -10 1 -13 -8 -9 -8 3 -12 9
-9 14 7 12 11 11 17 -5z m-1732 -803 c13 -16 12 -17 -3 -4 -10 7 -18 15 -18
17 0 8 8 3 21 -13z m772 -157 c4 -10 1 -13 -8 -9 -8 3 -12 9 -9 14 7 12 11 11
17 -5z"/>
</g>
</svg>
